<svg xmlns="http://www.w3.org/2000/svg" version="1.1" xmlns:xlink="http://www.w3.org/1999/xlink" xmlns:svgjs="http://svgjs.dev/svgjs" width="1000" height="1000" viewBox="0 0 1000 1000"><rect width="1000" height="1000" fill="#ffffff"></rect><g transform="matrix(0.7,0,0,0.7,149.57575757575756,426.06988512171506)"><svg viewBox="0 0 396 84" data-background-color="#1f2d5a" preserveAspectRatio="xMidYMid meet" height="212" width="1000" xmlns="http://www.w3.org/2000/svg" xmlns:xlink="http://www.w3.org/1999/xlink"><g id="tight-bounds" transform="matrix(1,0,0,1,0.2400000000000091,-0.15276516323493183)"><svg viewBox="0 0 395.52 84.3055290402046" height="84.3055290402046" width="395.52"><g><svg viewBox="0 0 395.52 84.3055290402046" height="84.3055290402046" width="395.52"><g transform="matrix(1,0,0,1,0,52.10419911693095)"><svg viewBox="0 0 395.52 32.201329923273654" height="32.201329923273654" width="395.52"><g><svg viewBox="0 0 395.52 32.201329923273654" height="32.201329923273654" width="395.52"><g><svg viewBox="0 0 395.52 32.201329923273654" height="32.201329923273654" width="395.52"><g transform="matrix(1,0,0,1,0,0)"><svg width="395.52" viewBox="1.75 -36.599998474121094 469.1600036621094 38.19999694824219" height="32.201329923273654" data-palette-color="#fbfbfb"><path d="M28.7-2.1L28.7-2.1 28.05-2.95Q26.15-1.85 23.98-1.25 21.8-0.65 19.45-0.65L19.45-0.65Q16.05-0.65 13-1.98 9.95-3.3 7.7-5.6L7.7-5.6Q5.45-7.85 4.13-10.9 2.8-13.95 2.8-17.4L2.8-17.4Q2.8-20.9 4.13-23.98 5.45-27.05 7.75-29.35L7.75-29.35Q10-31.7 13.05-33.02 16.1-34.35 19.6-34.35L19.6-34.35Q21.75-34.35 23.83-33.83 25.9-33.3 27.7-32.25L27.7-32.25 27.7-27.3 28.75-27.3 28.75-32.9Q26.7-34.1 24.43-34.75 22.15-35.4 19.6-35.4L19.6-35.4Q15.9-35.4 12.65-33.98 9.4-32.55 7-30.15L7-30.15Q4.55-27.7 3.15-24.43 1.75-21.15 1.75-17.45L1.75-17.45Q1.75-13.75 3.15-10.5 4.55-7.25 7-4.85L7-4.85Q9.4-2.4 12.65-1 15.9 0.4 19.6 0.4L19.6 0.4Q22.15 0.4 24.43-0.28 26.7-0.95 28.7-2.1ZM32.25 0L41.3 0 41.3-1.05 37.15-1.05 37.15-17.15 59.9-17.15 59.9-1.05 55.8-1.05 55.8 0 64.85 0 64.85-1.05 60.95-1.05 60.95-33.95 64.85-33.95 64.85-35 55.8-35 55.8-33.95 59.9-33.95 59.9-18.15 37.15-18.15 37.15-33.95 41.3-33.95 41.3-35 32.25-35 32.25-33.95 36.1-33.95 36.1-1.05 32.25-1.05 32.25 0ZM68.34 0L77.3 0 77.3-1.05 73.25-1.05Q74.8-4.75 76.32-8.3 77.84-11.85 79.39-15.6L79.39-15.6 95-15.6Q96.55-11.95 98.07-8.3 99.59-4.65 101.15-1.05L101.15-1.05 97.09-1.05 97.09 0 106.05 0 106.05-1.05 102.25-1.05Q98.5-9.95 94.72-18.8 90.94-27.65 87.19-36.6L87.19-36.6Q83.44-27.65 79.64-18.8 75.84-9.95 72.09-1.05L72.09-1.05 68.34-1.05 68.34 0ZM86.75-32.95L86.75-32.95Q86.89-33.4 87.02-33.7 87.14-34 87.19-34.25L87.19-34.25 87.64-32.95 94.55-16.65 79.84-16.65Q81.59-20.7 83.34-24.75 85.09-28.8 86.75-32.95ZM109.54 0L118.59 0 118.59-1.05 114.44-1.05 114.44-33.95 118.59-33.95 118.59-35 109.54-35 109.54-33.95 113.39-33.95 113.39-1.05 109.54-1.05 109.54 0ZM156.54 1.6L156.54-33.95 160.69-33.95 160.69-35 151.64-35 151.64-33.95 155.49-33.95 155.49-2.45 155.64-0.85 154.69-2.15 127.29-35 122.09-35 122.09-33.95 125.99-33.95 125.99-1.05 122.09-1.05 122.09 0 131.14 0 131.14-1.05 127.04-1.05 127.04-32.4 126.94-33.75 127.84-32.7 156.54 1.6ZM179.19 0L188.24 0 188.24-1.05 184.13-1.05 184.13-31.35Q184.13-31.9 184.11-32.45 184.09-33 184.09-33.55L184.09-33.55Q184.38-33.1 184.53-32.9 184.69-32.7 184.99-32.25L184.99-32.25 201.38-10.9 217.44-31.8Q217.84-32.35 218.06-32.68 218.28-33 218.69-33.55L218.69-33.55Q218.69-32.85 218.66-32.48 218.63-32.1 218.63-31.35L218.63-31.35 218.63-1.05 214.78-1.05 214.78 0 223.84 0 223.84-1.05 219.69-1.05 219.69-33.95 223.59-33.95 223.59-35 218.53-35Q214.24-29.45 209.96-23.83 205.69-18.2 201.38-12.65L201.38-12.65Q197.99-17.05 193.36-23.13 188.74-29.2 184.24-35L184.24-35 179.19-35 179.19-33.95 183.09-33.95 183.09-1.05 179.19-1.05 179.19 0ZM227.33 0L236.38 0 236.38-1.05 232.23-1.05 232.23-33.95 236.38-33.95 236.38-35 227.33-35 227.33-33.95 231.18-33.95 231.18-1.05 227.33-1.05 227.33 0ZM274.33 1.6L274.33-33.95 278.48-33.95 278.48-35 269.43-35 269.43-33.95 273.28-33.95 273.28-2.45 273.43-0.85 272.48-2.15 245.08-35 239.88-35 239.88-33.95 243.78-33.95 243.78-1.05 239.88-1.05 239.88 0 248.93 0 248.93-1.05 244.83-1.05 244.83-32.4 244.73-33.75 245.63-32.7 274.33 1.6ZM281.98 0L291.03 0 291.03-1.05 286.88-1.05 286.88-33.95 291.03-33.95 291.03-35 281.98-35 281.98-33.95 285.83-33.95 285.83-1.05 281.98-1.05 281.98 0ZM328.98 1.6L328.98-33.95 333.13-33.95 333.13-35 324.08-35 324.08-33.95 327.93-33.95 327.93-2.45 328.08-0.85 327.13-2.15 299.73-35 294.53-35 294.53-33.95 298.43-33.95 298.43-1.05 294.53-1.05 294.53 0 303.58 0 303.58-1.05 299.48-1.05 299.48-32.4 299.38-33.75 300.28-32.7 328.98 1.6ZM363.57-2L363.57-2 363.57-14.9 354.27-14.9 354.27-13.85 362.52-13.85 362.52-2.65Q360.72-1.6 358.65-1.07 356.57-0.55 354.32-0.55L354.32-0.55Q350.92-0.55 347.87-1.88 344.82-3.2 342.57-5.5L342.57-5.5Q340.32-7.75 339-10.8 337.67-13.85 337.67-17.3L337.67-17.3Q337.67-20.8 339-23.88 340.32-26.95 342.62-29.25L342.62-29.25Q344.87-31.6 347.92-32.93 350.97-34.25 354.47-34.25L354.47-34.25Q356.82-34.25 359-33.65 361.17-33.05 363.02-31.9L363.02-31.9 363.62-32.8Q361.57-34 359.3-34.65 357.02-35.3 354.47-35.3L354.47-35.3Q350.77-35.3 347.52-33.88 344.27-32.45 341.87-30.05L341.87-30.05Q339.42-27.6 338.02-24.33 336.62-21.05 336.62-17.35L336.62-17.35Q336.62-13.65 338.02-10.4 339.42-7.15 341.87-4.75L341.87-4.75Q344.27-2.3 347.52-0.9 350.77 0.5 354.47 0.5L354.47 0.5Q357.02 0.5 359.3-0.18 361.57-0.85 363.57-2ZM382.07 0L391.12 0 391.12-1.05 386.97-1.05 386.97-33.95 391.12-33.95 391.12-35 382.07-35 382.07-33.95 385.92-33.95 385.92-1.05 382.07-1.05 382.07 0ZM429.07 1.6L429.07-33.95 433.22-33.95 433.22-35 424.17-35 424.17-33.95 428.02-33.95 428.02-2.45 428.17-0.85 427.22-2.15 399.82-35 394.62-35 394.62-33.95 398.52-33.95 398.52-1.05 394.62-1.05 394.62 0 403.67 0 403.67-1.05 399.57-1.05 399.57-32.4 399.47-33.75 400.37-32.7 429.07 1.6ZM463.66-2.1L463.66-2.1 463.01-2.95Q461.11-1.85 458.94-1.25 456.76-0.65 454.41-0.65L454.41-0.65Q451.01-0.65 447.96-1.98 444.91-3.3 442.66-5.6L442.66-5.6Q440.41-7.85 439.09-10.9 437.76-13.95 437.76-17.4L437.76-17.4Q437.76-20.9 439.09-23.98 440.41-27.05 442.71-29.35L442.71-29.35Q444.96-31.7 448.01-33.02 451.06-34.35 454.56-34.35L454.56-34.35Q456.71-34.35 458.79-33.83 460.86-33.3 462.66-32.25L462.66-32.25 462.66-27.3 463.71-27.3 463.71-32.9Q461.66-34.1 459.39-34.75 457.11-35.4 454.56-35.4L454.56-35.4Q450.86-35.4 447.61-33.98 444.36-32.55 441.96-30.15L441.96-30.15Q439.51-27.7 438.11-24.43 436.71-21.15 436.71-17.45L436.71-17.45Q436.71-13.75 438.11-10.5 439.51-7.25 441.96-4.85L441.96-4.85Q444.36-2.4 447.61-1 450.86 0.4 454.56 0.4L454.56 0.4Q457.11 0.4 459.39-0.28 461.66-0.95 463.66-2.1ZM470.91-1.15L470.91-1.15Q470.91-1.65 470.56-2 470.21-2.35 469.76-2.35L469.76-2.35Q469.31-2.35 468.96-2 468.61-1.65 468.61-1.15L468.61-1.15Q468.61-0.7 468.96-0.35 469.31 0 469.76 0L469.76 0Q470.21 0 470.56-0.35 470.91-0.7 470.91-1.15Z" opacity="1" transform="matrix(1,0,0,1,0,0)" fill="#000000" class="undefined-text-0" data-fill-palette-color="primary" id="text-0"></path></svg></g></svg></g></svg></g></svg></g><g transform="matrix(1,0,0,1,127.95133617504972,0)"><svg viewBox="0 0 139.61732764990055 44.5022379539642" height="44.5022379539642" width="139.61732764990055"><g><svg xmlns="http://www.w3.org/2000/svg" xmlns:xlink="http://www.w3.org/1999/xlink" version="1.1" x="8" y="0" viewBox="0 32 100 36" enable-background="new 0 0 100 100" xml:space="preserve" height="44.5022379539642" width="123.61732764990055" class="icon-icon-0" data-fill-palette-color="accent" id="icon-0"><g fill="#2f76db" data-fill-palette-color="accent"><path d="M82 32H51c-9.925 0-18 7.851-18 17.5V51h10v-1.5c0-4.136 3.589-7.5 8-7.5h31c4.411 0 8 3.589 8 8 0 4.506-2.419 8-4.5 8H76c-2.761 0-5 2.238-5 5s2.239 5 5 5h9.5c7.995 0 14.5-8.075 14.5-18S91.925 32 82 32z" fill="#000000" data-fill-palette-color="accent"></path><path d="M57 50.5c0 4.136-3.589 7.5-8 7.5H18c-4.411 0-8-3.589-8-8 0-4.506 2.419-8 4.5-8H24c2.761 0 5-2.238 5-5s-2.239-5-5-5h-9.5C6.505 32 0 40.075 0 50s8.075 18 18 18h31c9.925 0 18-7.851 18-17.5V49H57V50.5z" fill="#000000" data-fill-palette-color="accent"></path></g></svg></g></svg></g><g><rect width="127.95133617504972" height="2.9039491642532993" y="40.59828878971089" x="267.56866382495025" fill="#000000" data-fill-palette-color="accent"></rect><rect width="127.95133617504972" height="2.9039491642532993" y="40.59828878971089" x="0" fill="#000000" data-fill-palette-color="accent"></rect><rect width="127.95133617504972" height="2.9039491642532993" y="34.7903904612043" x="267.56866382495025" fill="#000000" data-fill-palette-color="accent"></rect><rect width="127.95133617504972" height="2.9039491642532993" y="34.7903904612043" x="0" fill="#000000" data-fill-palette-color="accent"></rect></g></svg></g><defs></defs></svg><rect width="395.52" height="84.3055290402046" fill="none" stroke="none" visibility="hidden"></rect></g></svg></g></svg>